<?xml version="1.0" standalone="no"?>
<!DOCTYPE svg PUBLIC "-//W3C//DTD SVG 20010904//EN"
 "http://www.w3.org/TR/2001/REC-SVG-20010904/DTD/svg10.dtd">
<svg version="1.0" xmlns="http://www.w3.org/2000/svg"
 width="964.000000pt" height="964.000000pt" viewBox="0 0 964.000000 964.000000"
 preserveAspectRatio="xMidYMid meet">
<metadata>
Created by potrace 1.14, written by Peter Selinger 2001-2017
</metadata>
<g transform="translate(0.000000,964.000000) scale(0.100000,-0.100000)"
fill="#000000" stroke="none">
<path d="M4058 9195 c-2 -2 -32 -5 -68 -9 -96 -8 -167 -23 -255 -56 -59 -21
-168 -71 -175 -80 -3 -4 -12 -10 -20 -14 -58 -28 -116 -73 -217 -171 -39 -38
-69 -73 -67 -77 3 -4 1 -8 -5 -8 -21 0 -120 -169 -169 -292 -11 -26 -40 -131
-48 -173 -18 -92 -21 -347 -4 -385 1 -3 2 -8 1 -12 0 -5 26 -91 45 -148 3 -8
4 -15 3 -15 0 0 15 -28 35 -62 20 -34 36 -66 36 -71 0 -6 3 -12 8 -14 4 -1 27
-29 51 -62 46 -62 1334 -1355 1436 -1442 69 -59 123 -86 170 -86 41 0 105 20
105 33 0 5 6 9 13 9 23 0 90 65 641 616 646 647 772 775 811 829 17 22 33 42
36 45 17 12 104 172 130 236 29 72 58 179 65 244 8 63 10 191 3 195 -3 3 -5
16 -4 30 3 27 -22 140 -50 218 -45 132 -153 299 -258 402 -77 75 -150 135
-166 135 -6 0 -11 4 -11 9 0 18 -246 130 -325 147 -11 3 -42 10 -70 16 -66 14
-276 19 -345 7 -150 -26 -198 -42 -368 -126 -63 -30 -126 -56 -141 -58 -15 -1
-32 -4 -37 -7 -5 -2 -18 -3 -29 -1 -11 1 -34 4 -52 6 -17 3 -89 32 -160 65
-107 51 -214 91 -258 98 -5 1 -12 3 -15 4 -26 10 -264 32 -272 25z m117 -449
c70 -5 86 -9 148 -30 98 -33 204 -105 264 -177 77 -95 175 -153 239 -143 16 3
36 5 44 6 8 0 26 9 39 20 13 10 28 18 32 18 5 0 31 21 57 46 152 148 230 200
362 239 124 37 269 37 384 -1 253 -84 428 -332 421 -595 -5 -176 -36 -246
-168 -385 -201 -213 -1148 -1147 -1182 -1167 -13 -7 -101 77 -610 583 -458
455 -695 703 -695 726 0 8 -4 14 -8 14 -9 0 -39 78 -49 126 -12 62 -5 181 16
249 70 229 270 418 490 460 9 2 16 4 16 5 0 1 22 4 50 6 27 3 51 7 53 8 2 2
11 2 20 0 9 -1 44 -5 77 -8z"/>
<path d="M2857 6233 c-1 0 -51 -4 -112 -7 -115 -6 -186 -12 -245 -22 -19 -3
-48 -7 -65 -9 -40 -5 -266 -54 -285 -62 -8 -3 -23 -8 -32 -9 -33 -7 -222 -71
-303 -104 -70 -28 -314 -145 -355 -170 -8 -5 -58 -36 -110 -68 -231 -141 -477
-350 -640 -542 -30 -36 -57 -67 -60 -70 -20 -19 -110 -142 -110 -150 0 -5 -5
-10 -10 -10 -6 0 -13 -8 -17 -17 -3 -10 -19 -35 -36 -55 -16 -21 -25 -38 -20
-38 4 0 3 -4 -2 -8 -34 -24 -186 -318 -253 -487 -50 -127 -114 -333 -129 -415
-2 -13 -10 -54 -18 -90 -8 -36 -17 -88 -21 -116 -3 -27 -8 -57 -10 -67 -12
-64 -19 -209 -19 -387 0 -185 5 -264 20 -370 3 -19 7 -53 10 -75 2 -22 7 -51
10 -65 2 -14 9 -47 15 -75 6 -27 12 -59 14 -70 40 -201 202 -622 288 -748 11
-15 17 -27 14 -27 -5 0 38 -71 113 -185 40 -62 105 -150 114 -153 4 -2 7 -10
7 -17 0 -7 3 -15 8 -17 4 -2 31 -32 61 -68 90 -108 298 -310 391 -380 19 -14
64 -49 102 -78 38 -28 72 -52 76 -52 5 0 17 -8 28 -17 23 -21 26 -23 159 -101
86 -51 306 -162 320 -162 2 0 28 -11 57 -23 29 -13 76 -32 103 -41 28 -10 57
-20 65 -24 8 -3 22 -7 30 -8 8 -2 34 -10 58 -19 24 -8 51 -17 60 -18 9 -2 37
-9 62 -16 50 -14 68 -19 120 -27 19 -3 38 -8 41 -10 4 -2 24 -6 45 -10 22 -3
50 -7 64 -10 14 -3 45 -7 70 -9 25 -3 70 -8 100 -12 73 -9 458 -8 540 1 36 4
85 9 110 11 25 2 46 5 48 6 4 3 16 5 67 14 76 12 84 13 93 18 4 3 23 8 42 11
48 7 191 45 215 56 19 8 95 34 105 35 3 0 19 6 35 12 66 27 90 36 95 37 10 2
95 38 110 47 8 5 22 12 30 15 22 8 204 98 210 104 3 3 25 16 50 29 64 35 265
166 358 234 l80 57 68 -39 c150 -86 185 -104 344 -184 91 -45 167 -82 170 -83
3 0 23 -8 45 -18 61 -28 250 -106 270 -112 6 -2 64 -22 130 -44 115 -40 302
-94 358 -104 15 -3 37 -8 48 -11 12 -4 31 -8 42 -10 12 -2 36 -6 52 -9 62 -12
101 -19 130 -22 17 -2 40 -6 53 -9 30 -7 140 -17 214 -19 32 0 58 -5 58 -10 0
-5 6 -3 13 3 8 6 17 8 21 4 6 -7 175 -6 271 2 81 6 218 22 255 29 8 1 33 6 55
11 22 4 47 9 55 11 42 8 138 33 160 42 14 5 30 10 35 11 71 9 369 137 494 212
34 22 65 39 66 39 5 0 129 82 135 89 3 4 19 15 35 25 152 96 489 423 625 606
14 18 34 45 46 59 41 52 152 222 206 316 55 96 146 291 172 368 8 25 20 55 25
64 35 67 118 395 137 543 3 25 7 56 10 70 19 115 26 505 12 640 -15 132 -19
166 -24 190 -2 14 -7 40 -9 57 -5 33 -18 96 -41 186 -3 12 -7 32 -10 43 -5 26
-43 153 -51 174 -4 8 -7 18 -8 23 -2 4 -3 8 -5 10 -1 1 -3 11 -5 22 -2 10 -8
28 -13 40 -6 11 -27 61 -47 110 -190 459 -503 866 -901 1171 -95 73 -260 184
-273 184 -5 0 -11 3 -13 8 -7 16 -355 192 -381 192 -7 0 -17 4 -22 9 -9 7
-100 44 -115 47 -3 0 -43 13 -90 28 -190 62 -369 101 -560 120 -36 4 -83 9
-105 12 -43 6 -318 6 -400 0 -88 -6 -188 -17 -250 -27 -82 -14 -96 -17 -205
-41 -30 -7 -59 -13 -65 -14 -5 0 -17 -3 -25 -7 -8 -3 -55 -17 -105 -32 -274
-80 -626 -252 -866 -421 -30 -21 -68 -47 -85 -59 -16 -11 -51 -38 -77 -59 -51
-41 -65 -42 -109 -1 -15 14 -32 25 -38 25 -5 0 -10 5 -10 10 0 6 -7 10 -15 10
-8 0 -15 3 -15 8 0 4 -18 18 -40 32 -22 14 -40 29 -40 34 0 5 -3 7 -6 3 -3 -3
-17 4 -31 16 -13 12 -25 20 -27 17 -1 -3 -12 5 -26 18 -13 12 -27 22 -31 22
-5 0 -28 13 -51 29 -53 35 -291 160 -368 192 -30 13 -57 25 -60 28 -3 4 -9 7
-15 8 -5 1 -48 16 -95 33 -169 63 -382 120 -540 144 -19 3 -46 8 -60 10 -76
14 -434 38 -443 29z m323 -457 c14 -2 48 -7 75 -11 100 -14 148 -23 200 -37
22 -5 50 -12 61 -14 12 -2 53 -14 90 -26 38 -12 71 -22 74 -22 63 -10 476
-208 510 -246 3 -3 25 -18 49 -34 25 -16 50 -33 55 -37 6 -5 38 -30 71 -56 33
-26 74 -61 92 -76 l32 -29 -55 -79 c-30 -43 -54 -81 -54 -83 0 -3 -13 -24 -29
-48 -29 -44 -63 -101 -88 -150 -8 -15 -18 -30 -24 -33 -5 -4 -9 -15 -9 -25 0
-10 -4 -20 -9 -22 -7 -2 -125 -233 -126 -248 -1 -3 -11 -27 -23 -54 -12 -27
-22 -50 -22 -52 0 -1 -5 -15 -12 -31 -6 -15 -12 -32 -14 -38 -1 -5 -12 -35
-24 -65 -12 -30 -23 -64 -25 -75 -3 -11 -9 -31 -14 -45 -14 -37 -44 -142 -47
-166 -1 -11 -7 -38 -13 -60 -5 -21 -13 -52 -15 -69 -3 -16 -8 -39 -10 -50 -5
-26 -17 -112 -22 -150 -22 -207 -22 -469 1 -630 2 -16 7 -52 11 -80 3 -27 8
-59 10 -70 2 -11 7 -33 9 -50 3 -16 8 -38 11 -47 10 -33 16 -63 17 -85 1 -13
4 -23 7 -23 3 0 7 -11 8 -24 2 -24 83 -275 107 -331 7 -16 25 -59 40 -95 44
-104 116 -253 137 -282 11 -16 17 -28 14 -28 -2 0 20 -41 50 -90 30 -50 54
-95 54 -100 0 -6 3 -10 8 -10 4 0 23 -27 41 -60 19 -33 39 -60 43 -60 4 0 8
-6 8 -14 0 -8 3 -16 8 -18 4 -1 14 -16 23 -32 l17 -30 -87 -85 c-48 -47 -130
-116 -182 -153 -84 -61 -326 -192 -389 -212 -31 -10 -35 -11 -90 -31 -25 -9
-52 -19 -60 -21 -8 -2 -42 -11 -75 -20 -33 -9 -67 -18 -75 -19 -8 -2 -15 -4
-15 -5 0 -1 -9 -3 -20 -5 -50 -7 -101 -17 -115 -20 -8 -2 -37 -7 -65 -10 -27
-4 -61 -8 -75 -11 -14 -2 -83 -6 -154 -9 -70 -3 -132 -8 -137 -11 -5 -3 -9 -2
-9 3 0 4 -42 8 -93 9 -104 1 -250 14 -324 29 -43 9 -99 20 -158 30 -11 2 -22
4 -25 6 -3 1 -9 3 -15 4 -5 1 -30 7 -55 14 -25 8 -52 15 -60 16 -8 2 -16 4
-17 5 -2 2 -6 3 -10 4 -21 4 -189 62 -193 66 -3 3 -11 6 -17 7 -20 4 -189 82
-262 120 -69 37 -275 169 -301 194 -9 8 -36 30 -60 49 -120 93 -249 227 -415
431 -29 37 -121 177 -164 253 -119 206 -202 416 -257 643 -28 115 -31 128 -38
183 -3 19 -7 46 -10 60 -25 112 -26 531 -2 655 2 11 7 42 10 68 4 27 9 57 12
68 11 52 14 66 20 94 3 17 5 35 5 40 1 6 5 16 11 23 6 6 8 12 5 12 -4 0 1 19
9 43 9 23 17 47 18 52 23 103 160 416 217 497 11 14 19 29 19 34 0 4 11 22 25
40 14 18 25 36 25 39 0 8 80 119 112 157 13 14 32 39 43 54 62 86 256 280 363
363 83 65 180 135 199 144 13 6 23 14 23 19 0 4 5 8 11 8 6 0 24 9 39 20 48
34 270 145 360 180 111 43 207 74 325 106 23 6 222 45 250 49 17 2 62 7 100
10 39 4 72 9 73 10 5 5 423 -3 452 -9z m3700 0 c105 -8 207 -20 250 -29 8 -2
38 -8 65 -12 28 -5 52 -10 55 -10 3 -1 23 -5 45 -10 22 -4 45 -10 50 -14 6 -3
21 -7 35 -9 47 -6 316 -97 338 -115 6 -5 12 -7 12 -4 0 3 36 -12 80 -34 44
-21 82 -39 84 -39 10 0 201 -114 204 -122 2 -4 8 -8 13 -8 10 0 119 -77 129
-90 3 -4 10 -9 16 -11 36 -13 278 -245 368 -354 73 -89 76 -93 106 -135 13
-19 27 -37 30 -40 4 -3 17 -24 30 -47 13 -24 27 -43 32 -43 4 0 8 -5 8 -10 0
-6 11 -27 23 -48 66 -104 197 -382 200 -424 1 -10 5 -18 9 -18 4 0 8 -10 8
-23 0 -13 4 -27 9 -32 9 -10 68 -229 75 -281 3 -16 7 -40 10 -54 11 -49 27
-178 32 -260 9 -138 4 -336 -12 -465 -2 -16 -5 -46 -8 -67 -2 -20 -9 -61 -16
-92 -6 -31 -11 -58 -11 -61 0 -4 -52 -194 -63 -230 -2 -5 -6 -23 -11 -40 -4
-16 -11 -34 -15 -40 -4 -5 -13 -28 -20 -50 -12 -36 -63 -151 -109 -245 -128
-258 -356 -544 -602 -753 -64 -55 -216 -167 -226 -167 -4 0 -21 -11 -37 -25
-16 -14 -35 -25 -43 -25 -7 0 -13 -3 -13 -8 0 -4 -15 -13 -32 -21 -18 -8 -35
-18 -38 -22 -8 -10 -225 -112 -315 -147 -81 -31 -260 -88 -305 -96 -14 -3 -70
-14 -125 -25 -118 -23 -184 -33 -245 -35 -25 -1 -50 -4 -55 -7 -6 -3 -75 -4
-155 -3 -184 2 -296 11 -420 35 -158 30 -169 32 -230 50 -55 15 -52 14 -70 22
-8 3 -33 11 -55 17 -40 12 -76 25 -107 41 -10 5 -22 9 -28 9 -30 0 -381 187
-434 231 -6 5 -42 33 -81 61 -38 29 -81 62 -95 74 -14 13 -35 32 -48 42 l-23
20 38 54 c20 29 40 55 43 58 3 3 12 17 20 32 8 15 50 87 94 160 86 146 256
489 256 517 0 4 12 36 26 72 14 35 28 70 29 79 2 8 16 56 30 105 15 50 29 97
31 105 2 8 10 42 18 75 8 33 17 76 20 95 3 19 8 44 10 56 9 42 23 160 31 254
7 82 7 317 1 390 -8 92 -23 215 -26 215 -1 0 -3 11 -5 25 -7 62 -19 120 -46
223 -16 62 -31 119 -33 127 -2 8 -16 49 -30 90 -15 41 -28 82 -30 90 -5 19
-23 64 -43 110 -8 19 -19 44 -23 55 -57 142 -226 451 -342 624 l-56 83 31 36
c134 150 283 262 477 358 83 41 301 126 342 133 50 9 69 15 74 22 3 5 9 7 13
4 5 -2 39 2 77 10 38 8 89 17 114 20 25 4 59 9 75 11 17 2 68 7 115 10 47 3
86 6 87 7 4 4 236 -1 313 -7z m-2021 -1003 c55 -58 123 -141 168 -208 52 -76
123 -203 123 -219 0 -7 4 -16 9 -22 19 -21 103 -254 116 -326 2 -10 6 -21 8
-26 3 -4 8 -25 11 -47 4 -22 8 -47 11 -55 12 -43 29 -161 41 -300 11 -128 6
-423 -10 -505 -2 -11 -7 -40 -10 -65 -3 -25 -8 -55 -10 -66 -2 -12 -7 -39 -10
-60 -10 -59 -43 -194 -60 -241 -8 -24 -13 -43 -9 -43 3 0 0 -7 -7 -15 -7 -8
-9 -15 -5 -15 4 0 2 -7 -5 -15 -7 -8 -10 -15 -6 -15 3 0 -6 -26 -20 -57 -14
-32 -25 -59 -24 -61 1 -3 -28 -69 -41 -94 -5 -10 -9 -24 -9 -32 0 -8 -3 -16
-7 -18 -5 -1 -19 -25 -33 -53 -14 -27 -40 -74 -57 -103 -18 -29 -33 -55 -33
-57 0 -8 -104 -150 -112 -153 -5 -2 -8 -8 -8 -13 0 -5 -10 -19 -22 -31 l-21
-21 -51 56 c-64 70 -63 69 -127 158 -54 76 -199 351 -199 379 0 9 -4 20 -9 26
-25 26 -106 335 -127 484 -2 14 -6 41 -9 60 -10 67 -19 216 -18 335 0 120 10
312 17 324 2 3 7 35 10 70 3 35 8 67 11 71 3 4 7 25 10 46 11 74 72 285 108
374 6 14 11 30 13 37 5 27 127 263 135 263 5 0 8 4 6 9 -2 11 9 29 88 135 73
98 115 146 128 146 6 0 26 -17 46 -37z"/>
</g>
</svg>
