<?xml version="1.0" encoding="UTF-8"?>
<svg xmlns="http://www.w3.org/2000/svg" version="1.1" viewBox="0 0 225 110">
  <defs>
    <style>
      .cls-1 {
        fill: none;
        stroke: #a88c60;
        stroke-linecap: round;
        stroke-linejoin: round;
        stroke-width: 2.5px;
      }
    </style>
  </defs>
  <!-- Generator: Adobe Illustrator 28.6.0, SVG Export Plug-In . SVG Version: 1.2.0 Build 709)  -->
  <g>
    <g id="Layer_1">
      <g>
        <path class="cls-1" d="M180.73,96.35c1.12,3.55,6.74,8.1,11.28,10.12,5.36,2.54,11.75,2.52,17.53-.05,1.66-.74,3.22-1.66,4.65-2.75,3.92-2.96,6.88-7.08,8.25-11.68,1.8-6.01.68-12.81-3.08-18.66s-9.47-9.69-15.69-10.56c-12.58-1.75-23.41,7.13-28.75,12.59-3.21,3.28-6.15,6.89-8.99,10.39-3.78,4.64-7.68,9.44-12.22,13.44-7.19,6.35-18.5,11.75-28.69,7.93-7.28-2.73-12.48-8.32-12.54-16.1-.01-1.37.15-2.71.45-4.01,0,0,.82-3.4,2.73-6,1.38-1.87,3.13-3.36,5.14-4.24,2.57-1.12,5.41-1.13,7.8-.02,2.32,1.08,4.01,3.07,4.77,5.63.87,2.92-.33,6.55-2.79,8.44-1.53,1.16-3.31,1.55-5.22,1.16"/>
        <path class="cls-1" d="M99.61,92c-1.91.39-3.68,0-5.22-1.16-2.46-1.89-3.66-5.52-2.79-8.44.76-2.55,2.45-4.55,4.77-5.63,2.39-1.11,5.23-1.1,7.8.02,2.01.88,3.76,2.36,5.14,4.24,1.91,2.59,2.73,6,2.73,6,.3,1.3.46,2.64.45,4.01-.06,7.78-5.25,13.37-12.54,16.1-10.19,3.82-21.5-1.58-28.69-7.93-4.54-4-8.44-8.8-12.22-13.44-2.84-3.5-5.78-7.11-8.99-10.39-5.34-5.45-16.16-14.34-28.75-12.59-6.21.86-11.93,4.71-15.69,10.56-3.75,5.84-4.88,12.64-3.08,18.66,1.37,4.59,4.33,8.71,8.25,11.68,1.43,1.08,2.99,2.01,4.65,2.75,5.79,2.57,12.18,2.59,17.53.05,4.53-2.02,10.16-6.57,11.28-10.12"/>
        <path class="cls-1" d="M116.81,79.69c0-44.21,27.11-44.36,27.11-44.36,0,0-10.32-11.09-25.57-2.08,0,0,7.47-21.03-5.85-31.66-13.32,10.63-5.85,31.66-5.85,31.66-15.25-9.01-25.57,2.08-25.57,2.08,0,0,27.11.15,27.11,44.36"/>
      </g>
    </g>
  </g>
</svg>