<?xml version="1.0" encoding="UTF-8"?>
<svg id="Layer_1" xmlns="http://www.w3.org/2000/svg" viewBox="0 0 964.03 104.33">
  <defs>
    <style>
      .cls-1 {
        fill: none;
        stroke: #ffffff;
        stroke-linecap: round;
        stroke-linejoin: round;
        stroke-width: 2.5px;
      }
    </style>
  </defs>
  <g>
    <path class="cls-1" d="M77.28,43.51c-3.46,0-6.43,2.03-7.82,4.96-6.12-5.23-10.65-12.11-12.95-19.85-1.09-3.68-1.69-7.5-1.89-11.33-.24-4.68-.29-16.02-7.38-16.03-8.7-.02-7.83,15.7-5.42,22.51,1.67,4.72,4.19,9.13,7.38,12.99,5.12,6.2,11.84,10.92,19.09,14.29-7.12-.76-16.11-2.05-23.57-4.23C9.19,36.42,1.41,43.63,1.25,52.16c.16,8.53,7.94,15.75,43.49,5.36,7.46-2.18,16.45-3.47,23.57-4.23-7.26,3.38-13.98,8.1-19.09,14.29-3.19,3.86-5.7,8.26-7.38,12.99-2.41,6.8-3.28,22.52,5.42,22.51,7.09-.01,7.14-11.35,7.38-16.03.19-3.83.79-7.65,1.89-11.33,2.3-7.74,6.83-14.62,12.95-19.85,1.39,2.93,4.36,4.96,7.82,4.96,4.78,0,8.66-3.88,8.66-8.66s-3.88-8.66-8.66-8.66Z"/>
    <path class="cls-1" d="M154.31,52.16c0,3.54-2.87,6.42-6.42,6.42s-6.42-2.87-6.42-6.42,2.87-6.42,6.42-6.42,6.42,2.87,6.42,6.42Z"/>
    <line class="cls-1" x1="85.94" y1="52.16" x2="141.48" y2="52.16"/>
  </g>
  <g>
    <path class="cls-1" d="M886.75,60.82c3.46,0,6.43-2.03,7.82-4.96,6.12,5.23,10.65,12.11,12.95,19.85,1.09,3.68,1.69,7.5,1.89,11.33.24,4.68.29,16.02,7.38,16.03,8.7.02,7.83-15.7,5.42-22.51-1.67-4.72-4.19-9.13-7.38-12.99-5.12-6.2-11.84-10.92-19.09-14.29,7.12.76,16.11,2.05,23.57,4.23,35.55,10.39,43.33,3.18,43.49-5.36-.16-8.53-7.94-15.75-43.49-5.36-7.46,2.18-16.45,3.47-23.57,4.23,7.26-3.38,13.98-8.1,19.09-14.29,3.19-3.86,5.7-8.26,7.38-12.99,2.41-6.8,3.28-22.52-5.42-22.51-7.09.01-7.14,11.35-7.38,16.03-.19,3.83-.79,7.65-1.89,11.33-2.3,7.74-6.83,14.62-12.95,19.85-1.39-2.93-4.36-4.96-7.82-4.96-4.78,0-8.66,3.88-8.66,8.66s3.88,8.66,8.66,8.66Z"/>
    <path class="cls-1" d="M809.72,52.16c0-3.54,2.87-6.42,6.42-6.42s6.42,2.87,6.42,6.42-2.87,6.42-6.42,6.42-6.42-2.87-6.42-6.42Z"/>
    <line class="cls-1" x1="878.09" y1="52.16" x2="822.55" y2="52.16"/>
  </g>
  <line class="cls-1" x1="154.31" y1="52.16" x2="809.72" y2="52.16"/>
</svg>