<?xml version="1.0" encoding="UTF-8"?>
<svg id="Layer_1" xmlns="http://www.w3.org/2000/svg" viewBox="0 0 964.03 149.07">
  <defs>
    <style>
      .cls-1 {
        fill: none;
        stroke: #ffffff;
        stroke-linecap: round;
        stroke-linejoin: round;
        stroke-width: 2.5px;
      }
    </style>
  </defs>
  <g>
    <path class="cls-1" d="M550.25,96c1.12,3.55,6.74,8.1,11.28,10.12,5.36,2.54,11.75,2.52,17.53-.05,1.66-.74,3.22-1.66,4.65-2.75,3.92-2.96,6.88-7.08,8.25-11.68,1.8-6.01.68-12.81-3.08-18.66s-9.47-9.69-15.69-10.56c-12.58-1.75-23.41,7.13-28.75,12.59-3.21,3.28-6.15,6.89-8.99,10.39-3.78,4.64-7.68,9.44-12.22,13.44-7.19,6.35-18.5,11.75-28.69,7.93-7.28-2.73-12.48-8.32-12.54-16.1-.01-1.37.15-2.71.45-4.01,0,0,.82-3.4,2.73-6,1.38-1.87,3.13-3.36,5.14-4.24,2.57-1.12,5.41-1.13,7.8-.02,2.32,1.08,4.01,3.07,4.77,5.63.87,2.92-.33,6.55-2.79,8.44-1.53,1.16-3.31,1.55-5.22,1.16"/>
    <path class="cls-1" d="M469.13,91.65c-1.91.39-3.68,0-5.22-1.16-2.46-1.89-3.66-5.52-2.79-8.44.76-2.55,2.45-4.55,4.77-5.63,2.39-1.11,5.23-1.1,7.8.02,2.01.88,3.76,2.36,5.14,4.24,1.91,2.59,2.73,6,2.73,6,.3,1.3.46,2.64.45,4.01-.06,7.78-5.25,13.37-12.54,16.1-10.19,3.82-21.5-1.58-28.69-7.93-4.54-4-8.44-8.8-12.22-13.44-2.84-3.5-5.78-7.11-8.99-10.39-5.34-5.45-16.16-14.34-28.75-12.59-6.21.86-11.93,4.71-15.69,10.56-3.75,5.84-4.88,12.64-3.08,18.66,1.37,4.59,4.33,8.71,8.25,11.68,1.43,1.08,2.99,2.01,4.65,2.75,5.79,2.57,12.18,2.59,17.53.05,4.53-2.02,10.16-6.57,11.28-10.12"/>
    <path class="cls-1" d="M486.33,79.35c0-44.21,27.11-44.36,27.11-44.36,0,0-10.32-11.09-25.57-2.08,0,0,7.47-21.03-5.85-31.66-13.32,10.63-5.85,31.66-5.85,31.66-15.25-9.01-25.57,2.08-25.57,2.08,0,0,27.11.15,27.11,44.36"/>
  </g>
  <g>
    <g>
      <g>
        <path class="cls-1" d="M77.5,85.67c.96-5.34-3.76-10.39-9.84-8.94-4.14.98-7.06,4.32-7.34,8.57-.48,7.29,6.42,13.72,14.94,11.01,4.94-1.57,8.52-5.61,9.18-10.75,1.43-11.06-9.41-21.14-22.45-15.79-5.69,2.33-10.03,7.47-11.08,13.53-1.51,8.71,2.46,17.11,9.43,21.64,3.4,2.21,7.48,3.11,11.54,3.11h30.21"/>
        <path class="cls-1" d="M102.08,108.06h-30.21c-4.05,0-8.14.9-11.54,3.11-6.98,4.54-10.94,12.94-9.43,21.64,1.05,6.06,5.39,11.2,11.08,13.53,13.05,5.35,23.88-4.73,22.45-15.79-.66-5.14-4.24-9.18-9.18-10.75-8.52-2.7-15.42,3.73-14.94,11.02.28,4.25,3.2,7.58,7.34,8.57,6.08,1.45,10.8-3.6,9.84-8.94"/>
      </g>
      <path class="cls-1" d="M60.21,104.8c-33.37,0-33.49-20.47-33.49-20.47,0,0-8.37,7.79-1.57,19.3,0,0-15.87-5.64-23.9,4.42,8.02,10.06,23.9,4.42,23.9,4.42-6.8,11.51,1.57,19.3,1.57,19.3,0,0,.12-20.47,33.49-20.47"/>
    </g>
    <g>
      <g>
        <path class="cls-1" d="M886.54,130.44c-.96,5.34,3.76,10.39,9.84,8.94,4.14-.98,7.06-4.32,7.34-8.57.48-7.29-6.42-13.72-14.94-11.01-4.94,1.57-8.52,5.61-9.18,10.75-1.43,11.06,9.41,21.14,22.45,15.79,5.69-2.33,10.03-7.47,11.08-13.53,1.51-8.71-2.46-17.11-9.43-21.64-3.4-2.21-7.48-3.11-11.54-3.11h-30.21"/>
        <path class="cls-1" d="M861.95,108.06h30.21c4.05,0,8.14-.9,11.54-3.11,6.98-4.54,10.94-12.94,9.43-21.64-1.05-6.06-5.39-11.2-11.08-13.53-13.05-5.35-23.88,4.73-22.45,15.79.66,5.14,4.24,9.19,9.18,10.75,8.52,2.7,15.42-3.73,14.94-11.02-.28-4.25-3.2-7.58-7.34-8.57-6.08-1.45-10.8,3.6-9.84,8.94"/>
      </g>
      <path class="cls-1" d="M903.83,111.31c33.37,0,33.49,20.47,33.49,20.47,0,0,8.37-7.79,1.57-19.3,0,0,15.87,5.64,23.9-4.42-8.02-10.06-23.9-4.42-23.9-4.42,6.8-11.51-1.57-19.3-1.57-19.3,0,0-.12,20.47-33.49,20.47"/>
    </g>
    <line class="cls-1" x1="102.08" y1="108.06" x2="863.95" y2="108.06"/>
  </g>
</svg>